# Tiled2Unity generated file. Do not modify by hand.
# Wavefront file for 'Level_1_mesh_0002.obj'

# Vertices (Count = 36)
v -56 -8 0
v -57 -8 0
v -57 -7 0
v -56 -7 0
v -66 -8 0
v -67 -8 0
v -67 -7 0
v -66 -7 0
v -70 -8 0
v -71 -8 0
v -71 -7 0
v -70 -7 0
v -72 -8 0
v -73 -8 0
v -73 -7 0
v -72 -7 0
v -5 -12 0
v -6 -12 0
v -6 -11 0
v -5 -11 0
v -14 -12 0
v -15 -12 0
v -15 -11 0
v -14 -11 0
v -23 -12 0
v -24 -12 0
v -24 -11 0
v -23 -11 0
v -46 -12 0
v -47 -12 0
v -47 -11 0
v -46 -11 0
v -48 -12 0
v -49 -12 0
v -49 -11 0
v -48 -11 0

# Texture cooridinates (Count = 8)
vt 0.6011561 0.966763
vt 0.6315029 0.966763
vt 0.6315029 0.9971098
vt 0.6011561 0.9971098
vt 0.5346821 0.933526
vt 0.5650289 0.933526
vt 0.5650289 0.9638728
vt 0.5346821 0.9638728

# Normal
vn 0 0 -1

# Mesh description
g Level_1_mesh_0002

# Faces
f 1/1/1 2/2/1 3/3/1 4/4/1
f 5/1/1 6/2/1 7/3/1 8/4/1
f 9/1/1 10/2/1 11/3/1 12/4/1
f 13/1/1 14/2/1 15/3/1 16/4/1
f 17/5/1 18/6/1 19/7/1 20/8/1
f 21/5/1 22/6/1 23/7/1 24/8/1
f 25/5/1 26/6/1 27/7/1 28/8/1
f 29/1/1 30/2/1 31/3/1 32/4/1
f 33/1/1 34/2/1 35/3/1 36/4/1

